<svg xmlns="http://www.w3.org/2000/svg" viewBox="0 0 109.65 109.64"><defs><style>.cls-1{fill:#1f5b73;}</style></defs><g id="Capa_2" data-name="Capa 2"><g id="Why_us" data-name="Why us"><path class="cls-1" d="M54.83,109.64a54.82,54.82,0,1,1,54.82-54.82A54.89,54.89,0,0,1,54.83,109.64Zm0-103.5a48.68,48.68,0,1,0,48.69,48.68A48.74,48.74,0,0,0,54.83,6.14Z"/><path class="cls-1" d="M54.78,48.74c0-2.46,0-4.82,0-7.18,0-2.76,1.77-4.31,4.54-4.2a2.17,2.17,0,0,0,1.58-.75c2-2.68,5.05-2.65,6.88,0a2,2,0,0,0,1.45.72c3-.1,4.64,1.29,4.72,4.35,0,1.11,0,1.78,1.58,1.58a3.57,3.57,0,0,1,4,3.62c0,6.64.07,13.28-.07,19.92a18.18,18.18,0,0,1-1.13,5.09c-1.23,3.79-1.2,7.69-1.2,11.6,0,5.92.81,5-5,5.09-5.09,0-10.19,0-15.29,0-1.44,0-2.06-.47-2-2,.07-2.78,0-5.56,0-8.34a5.27,5.27,0,0,0-1.5-3.91c-.84-.91-1.62-1.87-2.51-2.72a10.17,10.17,0,0,1-3.26-8c.06-3.09,0-6.18,0-9.27,0-4.69,1.93-6.34,6.51-5.65A4.61,4.61,0,0,0,54.78,48.74ZM57,52.58h0c0,3.6,0,7.21-.05,10.81,0,.64-.64,1.75-1.07,1.79-1.07.11-1.13-.91-1.12-1.77q0-4.78,0-9.57c0-1.94-.94-3.07-2.48-3.1s-2.6,1.2-2.6,3.15c0,3.45-.19,6.91.07,10.34A11.2,11.2,0,0,0,51.52,69a23.81,23.81,0,0,0,3.55,4,6.85,6.85,0,0,1,1.93,5c0,2.16.08,4.32,0,6.48-.05,1.38.36,1.9,1.82,1.88,4.63-.09,9.27,0,13.9,0,2.27,0,2.18,0,2.3-2.33.18-3.78.37-7.58.81-11.34.26-2.17,1.39-4.28,1.47-6.43.22-6.27.13-12.56.11-18.84a1.71,1.71,0,0,0-1.79-1.91c-1.19,0-1.64.9-1.64,2v5.86c0,.84.08,1.83-1.06,1.89s-1.21-1-1.21-1.88v-11c0-2-.53-2.89-1.74-2.86s-1.65.81-1.65,2.78c0,2.26,0,4.53,0,6.79,0,1.65.07,3.3-.06,4.94,0,.43-.7.82-1.08,1.23a10.55,10.55,0,0,1-1.07-1.25c-.14-.22,0-.61,0-.91,0-4.64,0-9.27,0-13.9,0-1.51-.76-2.63-1.73-2.46-1.32.24-1.77,1.21-1.76,2.5,0,3.71,0,7.41,0,11.12,0,1.28,0,2.58-.07,3.85a1.31,1.31,0,0,1-.92.92c-.34,0-.83-.47-1-.86A3.42,3.42,0,0,1,60.49,53c0-3.65,0-7.31,0-11,0-1.23-.27-2.39-1.77-2.39S57,40.87,57,42.08Z"/><path class="cls-1" d="M40.4,49.81c0,3.55,0,7.1,0,10.65,0,.78,0,1.77-1.06,1.61-.4-.06-.92-1-.94-1.57-.09-3.34,0-6.69-.07-10a2.54,2.54,0,0,0-2.09-2.68,2.32,2.32,0,0,0-2.74,1.48,3.55,3.55,0,0,0-.21,1.5c0,3.4,0,6.8,0,10.19a7.66,7.66,0,0,0,2.14,5.6c1.09,1.16,2.15,2.36,3.25,3.51a6.21,6.21,0,0,1,1.77,4.61c0,2.37,0,4.74,0,7.1,0,1.12.34,1.56,1.52,1.53,2.77-.06,5.56-.07,8.33,0,.59,0,1.14.71,1.71,1.09-.56.38-1.11,1.09-1.67,1.1-3.4.11-6.8,0-10.19.06-1.24,0-1.77-.48-1.74-1.75.06-2.42-.12-4.85,0-7.26A7.15,7.15,0,0,0,36,70.53c-.9-.84-1.68-1.81-2.51-2.72A9,9,0,0,1,31,61.65c0-3.7-.06-7.41,0-11.11s2.65-5.68,6.28-4.82c1,.23,1.05-.33,1.06-1,0-2.06,0-4.12,0-6.18,0-2.94,1.78-4.47,4.76-4.21a1.48,1.48,0,0,0,1.12-.45c2.34-3,5-3,7.18,0a1.71,1.71,0,0,0,1.12.49c.39.06.87-.23,1.2-.09s1,.6,1.12,1A1.44,1.44,0,0,1,54,36.41c-1.83.21-2.26,1.29-2.19,2.91.07,1.43,0,2.88,0,4.32,0,.87.13,2-1.17,1.91s-1.1-1.13-1.1-2q0-3.72,0-7.42c0-1.21-.31-2.26-1.72-2.24S46.13,35,46.13,36.19c0,3.7,0,7.41,0,11.11,0,.72,0,1.45,0,2.17s.23,1.84-1,1.85S44,50.23,44,49.38c0-1.81,0-3.61,0-5.41,0-1.65,0-3.29,0-4.94,0-1.23-.24-2.32-1.74-2.43-1.1-.08-1.79.85-1.8,2.4,0,3.6,0,7.21,0,10.81Z"/><path class="cls-1" d="M57,22.21c0,1.75.08,3.51-.05,5.25,0,.57-.58,1.49-1,1.56-1,.16-1.18-.7-1.18-1.56q0-5.25,0-10.5c0-.78.13-1.63,1.07-1.45A1.94,1.94,0,0,1,57,17C57.11,18.71,57,20.46,57,22.21Z"/><path class="cls-1" d="M45.26,18.57c.19.18.59.39.76.72,1.4,2.63,2.8,5.25,4.07,7.94.2.42-.25,1.15-.4,1.74-.5-.25-1.22-.36-1.44-.76-1.42-2.55-2.76-5.14-4-7.76A1.25,1.25,0,0,1,45.26,18.57Z"/><path class="cls-1" d="M61.62,27.86a8.37,8.37,0,0,1,.34-.93c1.27-2.46,2.5-4.94,3.86-7.36.24-.43,1-.58,1.5-.87.15.6.61,1.33.41,1.76-1.27,2.68-2.66,5.31-4.1,7.91a1.6,1.6,0,0,1-1.36.55C62,28.86,61.79,28.16,61.62,27.86Z"/></g></g></svg>