<svg xmlns="http://www.w3.org/2000/svg" xmlns:xlink="http://www.w3.org/1999/xlink" viewBox="0 0 114.75 99.07"><defs><style>.cls-1,.cls-2,.cls-3,.cls-4,.cls-5,.cls-6{fill:none;stroke-width:2.82px;}.cls-1,.cls-4{stroke:#fff;}.cls-1,.cls-3,.cls-5,.cls-6{stroke-miterlimit:10;}.cls-2,.cls-4{stroke-linecap:round;stroke-linejoin:round;}.cls-2{stroke:url(#linear-gradient);}.cls-3{stroke:url(#linear-gradient-2);}.cls-5{stroke:url(#linear-gradient-3);}.cls-6{stroke:url(#linear-gradient-4);}</style><linearGradient id="linear-gradient" x1="108.12" y1="39.07" x2="6.63" y2="39.07" gradientUnits="userSpaceOnUse"><stop offset="0" stop-color="#e4e3e4"/><stop offset="0.06" stop-color="#eae9ea"/><stop offset="0.23" stop-color="#f6f6f6"/><stop offset="0.46" stop-color="#fdfdfd"/><stop offset="1" stop-color="#fff"/></linearGradient><linearGradient id="linear-gradient-2" x1="69.36" y1="84.65" x2="45.39" y2="84.65" xlink:href="#linear-gradient"/><linearGradient id="linear-gradient-3" x1="42.02" y1="49" x2="13.53" y2="49" xlink:href="#linear-gradient"/><linearGradient id="linear-gradient-4" x1="82.15" y1="39.07" x2="32.6" y2="39.07" xlink:href="#linear-gradient"/></defs><g id="Capa_2" data-name="Capa 2"><g id="services"><rect class="cls-1" x="1.41" y="1.41" width="111.93" height="75.31" rx="5.86"/><rect class="cls-2" x="8.04" y="8.22" width="98.67" height="61.68"/><rect class="cls-3" x="46.8" y="76.72" width="21.16" height="15.86"/><path class="cls-4" d="M74.91,92.58H39.83a5.19,5.19,0,0,0-5,5.08H80A5.2,5.2,0,0,0,74.91,92.58Z"/><polyline class="cls-5" points="14.95 33.07 14.95 63.53 42.02 63.53"/><path class="cls-6" d="M76.64,39.31c0-.59,0-1.16-.07-1.73l3.86-1L78.69,30l-3.93,1a19.45,19.45,0,0,0-3.19-4.71L74.09,23l-5.41-4.18-2.56,3.32a18.61,18.61,0,0,0-5.33-1.79V16.13H54v4.22A18.76,18.76,0,0,0,48.87,22l-2.51-3.35-5.47,4.1,2.48,3.31a20,20,0,0,0-2.5,3.28L37,27.94l-2.36,6.41,3.77,1.39a19,19,0,0,0-.34,3.57c0,.42,0,.84,0,1.26l-3.82,1,1.73,6.61,3.74-1A19.34,19.34,0,0,0,43,52.12l-2.32,3,5.41,4.18,2.29-3A18.77,18.77,0,0,0,54,58.27V62h6.83V58.27a19.18,19.18,0,0,0,5.35-1.8l2.24,3,5.48-4.1-2.28-3a19.7,19.7,0,0,0,2.53-3.46l3.6,1.33,2.36-6.42-3.68-1.35A20.1,20.1,0,0,0,76.64,39.31ZM57.37,52.19A13.13,13.13,0,1,1,70.5,39.07,13.13,13.13,0,0,1,57.37,52.19Z"/></g></g></svg>