<svg xmlns="http://www.w3.org/2000/svg" viewBox="0 0 109.65 109.64"><defs><style>.cls-1{fill:#1f5b73;}</style></defs><g id="Capa_2" data-name="Capa 2"><g id="Why_us" data-name="Why us"><path class="cls-1" d="M54.83,109.64a54.82,54.82,0,1,1,54.82-54.82A54.89,54.89,0,0,1,54.83,109.64Zm0-103.5a48.68,48.68,0,1,0,48.69,48.68A48.74,48.74,0,0,0,54.83,6.14Z"/><path class="cls-1" d="M54.69,70.85c-3.64,0-7.27,0-10.91,0-1.39,0-2-.46-2-1.91.07-2.69,0-5.38,0-8.07a6.77,6.77,0,0,1,6.8-6.33c.47,0,.9.64,1.35,1-.38.42-.7,1.11-1.16,1.23-3.43.89-4.74,2.47-4.75,6,0,1.44,0,2.88,0,4.33a1.1,1.1,0,0,0,1.26,1.28q9.42,0,18.82,0c.83,0,1.17-.4,1.16-1.2,0-1.94.06-3.88,0-5.82-.13-2.36-1.73-4-4.26-4.49-.82-.16-1.72-.27-1.6-1.35s1.07-1,1.87-1c3.3,0,6.45,3.23,6.53,6.74.06,2.54,0,5.08,0,7.62,0,1.41-.59,2-2,2-1.89,0-3.78,0-5.67,0Z"/><path class="cls-1" d="M61.48,47.33a6.71,6.71,0,1,1-6.6-6.8A6.6,6.6,0,0,1,61.48,47.33Zm-6.65-4.28a4.2,4.2,0,1,0-.11,8.39,4.45,4.45,0,0,0,4.44-4.13A4.62,4.62,0,0,0,54.83,43.05Z"/><path class="cls-1" d="M56.17,78.11c0,.52-.11,1-.11,1.57,0,3.28,0,6.56,0,9.85a3.21,3.21,0,0,1,0,1.32c-.3.6-.75,1.49-1.23,1.56-1,.13-1.25-.73-1.25-1.62,0-3.68,0-7.36,0-11V77.66a9.51,9.51,0,0,1-1.68,1.27,7.77,7.77,0,0,1-1.83.28c0-.66-.24-1.54.09-1.94a36.52,36.52,0,0,1,3.53-3.62,1.51,1.51,0,0,1,2.27,0c1.2,1.19,2.44,2.35,3.54,3.63.31.37.2,1.11.29,1.68a5.83,5.83,0,0,1-2,0c-.4-.15-.58-.88-.86-1.35Z"/><path class="cls-1" d="M53.52,31.94V19.45c0-.93.2-1.9,1.29-1.72A2.19,2.19,0,0,1,56,19.41c.11,3.63,0,7.26,0,10.89,0,.57.09,1.14.16,2.06.71-.6,1.1-1.13,1.6-1.3A6,6,0,0,1,59.67,31c-.05.57.12,1.32-.18,1.67a29.16,29.16,0,0,1-3.67,3.7,2.16,2.16,0,0,1-2.09,0A26.12,26.12,0,0,1,50,32.73c-.32-.39-.12-1.23-.15-1.87a7.23,7.23,0,0,1,1.88.19,5.35,5.35,0,0,1,1.33,1.08Z"/><path class="cls-1" d="M78.63,49.05c.93.08,1.44.15,2,.15,3.53,0,7.06,0,10.59,0a2.87,2.87,0,0,1,1.18.05,7.51,7.51,0,0,1,1.26,1c-.42.41-.78,1.09-1.25,1.18a17.07,17.07,0,0,1-3.12.07H80.73c-.52,0-1,.07-2,.12a11.93,11.93,0,0,1,1.41,1.8c.22.45.36,1.36.16,1.5-.44.3-1.37.51-1.67.26a43.82,43.82,0,0,1-4.2-4.2,1.81,1.81,0,0,1,.22-1.69,46.35,46.35,0,0,1,3.54-3.61c.61-.58,1.36-.88,2.1-.13s.17,1.34-.33,1.9Z"/><path class="cls-1" d="M30.31,51.59c-.53,0-1-.07-1.58-.07H17.53c-.85,0-1.5-.26-1.48-1.25s.76-1,1.48-1c3.78,0,7.57,0,11.35,0a8.35,8.35,0,0,0,1.54-.29,12.09,12.09,0,0,0-.76-1.31c-.51-.65-1.11-1.3-.34-2.07s1.48-.3,2.09.29c1.07,1,2.12,2.09,3.17,3.16a1.68,1.68,0,0,1,0,2.71c-1.12,1.07-2.12,2.26-3.32,3.22-.45.36-1.31.21-2,.29a9.54,9.54,0,0,1,.27-2c.16-.45.65-.78,1-1.17Z"/></g></g></svg>