<svg width="50" height="50" viewBox="0 0 50 50" fill="none" xmlns="http://www.w3.org/2000/svg">
<g clip-path="url(#clip0_94_51)">
<g clip-path="url(#clip1_94_51)">
<path d="M12.6807 1.46879C9.83644 13.2254 15.6033 19.5285 19.6055 23.901C21.54 26.0145 23.1022 27.7214 23.367 29.5667C23.5301 30.553 23.2229 31.2016 22.8694 31.948C22.6204 32.4738 22.3366 33.073 22.3366 33.9219C22.3366 33.9499 22.5055 34.2161 22.7045 34.5297C23.4714 35.7383 24.4906 37.3445 23.1734 39.6716C22.6209 40.648 21.8452 40.9464 21.025 41.262C20.2718 41.5517 19.4529 41.8668 19.1658 43.5196L19.0145 44.3906H18.1353H15.7144L14.4581 47.5313H34.4721L33.2158 44.3906H30.7949H29.9157L29.7644 43.5196C29.4773 41.8668 28.6584 41.5517 27.9052 41.262C27.085 40.9464 26.3094 40.648 25.7568 39.6716C24.4397 37.3445 25.4588 35.7383 26.2257 34.5297C26.4247 34.2161 26.5936 33.9499 26.5936 33.9219C26.5936 33.073 26.3098 32.4738 26.0608 31.948C25.7073 31.2016 25.4 30.553 25.5631 29.5667C25.8279 27.7214 27.3903 26.0145 29.3247 23.901C33.327 19.5285 39.0938 13.2254 36.2495 1.46879H12.6807ZM18.0679 25.3077C13.661 20.4931 7.26706 13.5075 10.8578 0.151989L11.0667 -0.625015H11.8679H37.0623H37.8634L38.0724 0.151989C41.6631 13.5075 35.2692 20.4931 30.8623 25.3077C29.1636 27.1636 27.7932 28.6608 27.6282 29.8734L27.6241 29.902C27.5669 30.2476 27.7451 30.6237 27.9501 31.0565C28.2946 31.7841 28.6873 32.6132 28.6873 33.9219C28.6873 34.5548 28.3683 35.0576 27.9923 35.6501C27.5128 36.4058 26.8756 37.41 27.5724 38.6411C27.7605 38.9734 28.1925 39.1397 28.6494 39.3155C29.791 39.7546 31.0209 40.2281 31.626 42.2968H33.9216H34.6274L34.8908 42.9553L36.9846 48.1897L37.5588 49.6251H36.0154H12.9147H11.3714L11.9455 48.1897L14.0393 42.9553L14.3028 42.2968H15.0085H17.3042C17.9093 40.2281 19.1391 39.7546 20.2807 39.3155C20.7377 39.1397 21.1697 38.9734 21.3578 38.6411C22.0546 37.41 21.4174 36.4058 20.9379 35.6501C20.5619 35.0576 20.2428 34.5548 20.2428 33.9219C20.2428 32.6132 20.6355 31.7841 20.9801 31.0565C21.1851 30.6237 21.3632 30.2476 21.3061 29.902L21.302 29.8734C21.137 28.6608 19.7666 27.1636 18.0679 25.3077Z" fill="white"/>
<path d="M18.2188 44.3907C17.6406 44.3907 17.1719 43.922 17.1719 43.3438C17.1719 42.7656 17.6406 42.2969 18.2188 42.2969H30.7811C31.3593 42.2969 31.828 42.7656 31.828 43.3438C31.828 43.922 31.3593 44.3907 30.7811 44.3907H18.2188Z" fill="white"/>
<path d="M11.1858 5.64455L5.65784 5.65193C5.73295 8.32861 6.64577 10.9265 8.07178 13.246C9.89997 16.2196 12.5594 18.7235 15.3847 20.3548C15.5435 20.4457 16.1834 20.7689 16.6559 21.0058C16.9607 21.1587 17.1227 21.2385 17.1687 21.2622L16.2117 23.1188C15.9967 23.0075 15.8725 22.9452 15.7235 22.8705C15.2251 22.6206 14.5476 22.2809 14.3419 22.1623C11.2299 20.3654 8.29843 17.6107 6.28878 14.3419C4.48219 11.4035 3.40724 8.04002 3.5832 4.56145L3.63343 3.56907L4.62601 3.56772L11.1858 3.55894L11.1858 5.64455Z" fill="white"/>
<path d="M37.8134 3.55888L44.3732 3.56766L45.3658 3.56901L45.416 4.56139C45.5923 8.0466 44.5088 11.4203 42.6901 14.3683C40.6654 17.6501 37.7231 20.4092 34.6025 22.1978C34.49 22.2622 33.9672 22.5513 33.4597 22.8302C33.0646 23.0474 32.6801 23.2569 32.54 23.3294L31.583 21.4729C31.6687 21.4285 32.0434 21.2237 32.4537 20.9982C32.9064 20.7493 33.4097 20.4702 33.5637 20.3821C36.4046 18.7539 39.0794 16.2482 40.9153 13.2723C42.3487 10.9488 43.2667 8.34158 43.3415 5.65188L37.8134 5.6445L37.8134 3.55888Z" fill="white"/>
</g>
</g>
<defs>
<clipPath id="clip0_94_51">
<rect width="50" height="50" fill="white"/>
</clipPath>
<clipPath id="clip1_94_51">
<rect width="67" height="67" fill="white" transform="translate(-9 -9)"/>
</clipPath>
</defs>
</svg>
