<svg width="50" height="50" viewBox="0 0 50 50" fill="none" xmlns="http://www.w3.org/2000/svg">
<g clip-path="url(#clip0_94_34)">
<path d="M25.2501 0.5466C32.0813 0.5466 38.2674 3.31176 42.7466 7.78227C47.2279 12.2548 49.9997 18.4309 49.9997 25.2501C49.9997 32.0694 47.2279 38.2455 42.7466 42.718C38.2674 47.1885 32.0813 49.9537 25.2501 49.9537C18.4188 49.9537 12.2327 47.1885 7.75349 42.718C3.27226 38.2455 0.500488 32.0694 0.500488 25.2501C0.500488 18.4309 3.27227 12.2548 7.75349 7.78227C12.2327 3.31174 18.4188 0.5466 25.2501 0.5466ZM41.3545 9.18216C37.2344 5.07011 31.5407 2.5266 25.2501 2.5266C18.9594 2.5266 13.2658 5.07011 9.14565 9.18216C5.02768 13.2922 2.48052 18.973 2.48052 25.2501C2.48052 31.5272 5.02765 37.2081 9.14565 41.3181C13.2657 45.4301 18.9594 47.9737 25.2501 47.9737C31.5407 47.9737 37.2344 45.4301 41.3545 41.3181C45.4725 37.208 48.0196 31.5272 48.0196 25.2501C48.0196 18.973 45.4725 13.2922 41.3545 9.18216Z" fill="white"/>
<path d="M26.2403 5.63456C26.2403 5.08779 25.797 4.64455 25.2503 4.64455C24.7035 4.64455 24.2603 5.08779 24.2603 5.63456V9.59447C24.2603 10.1412 24.7035 10.5845 25.2503 10.5845C25.797 10.5845 26.2403 10.1412 26.2403 9.59447V5.63456Z" fill="white"/>
<path d="M26.2403 41.0898C26.2403 40.543 25.797 40.0998 25.2503 40.0998C24.7035 40.0998 24.2603 40.543 24.2603 41.0898V45.0497C24.2603 45.5964 24.7035 46.0397 25.2503 46.0397C25.797 46.0397 26.2403 45.5964 26.2403 45.0497V41.0898Z" fill="white"/>
<path d="M39.8854 12.1067C40.2719 11.7202 40.2719 11.0934 39.8854 10.7068C39.4989 10.3203 38.872 10.3203 38.4855 10.7068L35.6854 13.5069C35.2989 13.8935 35.2989 14.5202 35.6854 14.9068C36.072 15.2934 36.6988 15.2934 37.0853 14.9068L39.8854 12.1067Z" fill="white"/>
<path d="M14.8151 37.1775C15.2017 36.791 15.2017 36.1642 14.8151 35.7776C14.4286 35.3911 13.8018 35.3911 13.4152 35.7776L10.6151 38.5777C10.2286 38.9643 10.2286 39.5911 10.6151 39.9776C11.0017 40.3642 11.6285 40.3642 12.015 39.9776L14.8151 37.1775Z" fill="white"/>
<path d="M44.9577 26.3323C45.5045 26.3323 45.9477 25.889 45.9477 25.3423C45.9477 24.7955 45.5045 24.3523 44.9577 24.3523H40.9978C40.4511 24.3523 40.0078 24.7955 40.0078 25.3423C40.0078 25.889 40.4511 26.3323 40.9978 26.3323H44.9577Z" fill="white"/>
<path d="M9.50269 26.3323C10.0494 26.3323 10.4927 25.889 10.4927 25.3423C10.4927 24.7955 10.0494 24.3523 9.50269 24.3523H5.54275C4.99598 24.3523 4.55273 24.7955 4.55273 25.3423C4.55273 25.889 4.99597 26.3323 5.54275 26.3323H9.50269Z" fill="white"/>
<path d="M38.4855 39.9777C38.8721 40.3642 39.4989 40.3642 39.8855 39.9777C40.272 39.5911 40.272 38.9643 39.8855 38.5778L37.0853 35.7777C36.6988 35.3911 36.072 35.3911 35.6854 35.7777C35.2989 36.1642 35.2989 36.791 35.6854 37.1775L38.4855 39.9777Z" fill="white"/>
<path d="M13.4147 14.9069C13.8013 15.2934 14.4281 15.2934 14.8147 14.9069C15.2012 14.5203 15.2012 13.8935 14.8147 13.5069L12.0145 10.7068C11.628 10.3203 11.0012 10.3203 10.6146 10.7068C10.2281 11.0934 10.2281 11.7202 10.6146 12.1067L13.4147 14.9069Z" fill="white"/>
<path d="M26.2403 13.3703C26.2403 12.8236 25.797 12.3803 25.2503 12.3803C24.7035 12.3803 24.2603 12.8235 24.2603 13.3703V25.2501C24.2603 25.7969 24.7035 26.2401 25.2503 26.2401H36.1401C36.6868 26.2401 37.1301 25.7969 37.1301 25.2501C37.1301 24.7034 36.6868 24.2601 36.1401 24.2601H26.2403L26.2403 13.3703Z" fill="white"/>
<path d="M25.2502 27.7963C26.6564 27.7963 27.7964 26.6563 27.7964 25.2501C27.7964 23.8439 26.6564 22.704 25.2502 22.704C23.844 22.704 22.7041 23.8439 22.7041 25.2501C22.7041 26.6563 23.844 27.7963 25.2502 27.7963Z" fill="white"/>
</g>
<defs>
<clipPath id="clip0_94_34">
<rect width="50" height="50" fill="white"/>
</clipPath>
</defs>
</svg>
