<svg width="50" height="50" viewBox="0 0 50 50" fill="none" xmlns="http://www.w3.org/2000/svg">
<g clip-path="url(#clip0_64_76)">
<g clip-path="url(#clip1_64_76)">
<path d="M25.0002 35.4167C22.2375 35.4167 19.588 34.3192 17.6345 32.3657C15.681 30.4122 14.5835 27.7627 14.5835 25H16.6668C16.6668 27.2101 17.5448 29.3298 19.1076 30.8926C20.6704 32.4554 22.79 33.3333 25.0002 33.3333C27.2103 33.3333 29.3299 32.4554 30.8927 30.8926C32.4555 29.3298 33.3335 27.2101 33.3335 25H35.4168C35.4168 27.7627 34.3194 30.4122 32.3659 32.3657C30.4124 34.3192 27.7628 35.4167 25.0002 35.4167Z" fill="white"/>
<path d="M10.4169 12.5C7.54189 12.5 5.20856 9.69792 5.20856 6.25C5.15904 5.5533 5.25981 4.8541 5.50404 4.19974C5.74827 3.54538 6.13026 2.95114 6.62414 2.45725C7.11803 1.96337 7.71227 1.58138 8.36663 1.33715C9.02099 1.09292 9.72019 0.992151 10.4169 1.04167C11.1136 0.992151 11.8128 1.09292 12.4671 1.33715C13.1215 1.58138 13.7158 1.96337 14.2096 2.45725C14.7035 2.95114 15.0855 3.54538 15.3297 4.19974C15.574 4.8541 15.6747 5.5533 15.6252 6.25C15.6252 9.69792 13.2919 12.5 10.4169 12.5ZM10.4169 3.125C9.99524 3.07881 9.5686 3.12789 9.16845 3.2686C8.76829 3.40932 8.40484 3.63808 8.10491 3.93802C7.80497 4.23795 7.57621 4.6014 7.43549 5.00156C7.29478 5.40171 7.2457 5.82835 7.29189 6.25C7.29189 8.55208 8.69814 10.4167 10.4169 10.4167C12.1356 10.4167 13.5419 8.55208 13.5419 6.25C13.5881 5.82835 13.539 5.40171 13.3983 5.00156C13.2576 4.6014 13.0288 4.23795 12.7289 3.93802C12.4289 3.63808 12.0655 3.40932 11.6653 3.2686C11.2652 3.12789 10.8385 3.07881 10.4169 3.125Z" fill="white"/>
<path d="M2.08343 22.9167H9.59375e-05V16.2292C-0.00771512 14.9416 0.461693 13.6968 1.31772 12.7349C2.17376 11.7731 3.35572 11.1624 4.63551 11.0208L10.3022 10.4167L10.5313 12.5L4.86468 13.1354C4.09681 13.2204 3.38762 13.5868 2.87401 14.1639C2.36039 14.741 2.07874 15.4879 2.08343 16.2604V22.9167Z" fill="white"/>
<path d="M6.25033 16.6667H4.16699V25H6.25033V16.6667Z" fill="white"/>
<path d="M24.9999 11.4583C22.1249 11.4583 19.7916 8.65625 19.7916 5.20833C19.742 4.51164 19.8428 3.81243 20.087 3.15807C20.3313 2.50371 20.7133 1.90947 21.2072 1.41559C21.701 0.921707 22.2953 0.539718 22.9496 0.295486C23.604 0.0512551 24.3032 -0.049515 24.9999 -1.17349e-07C25.6966 -0.049515 26.3958 0.0512551 27.0502 0.295486C27.7045 0.539718 28.2988 0.921707 28.7926 1.41559C29.2865 1.90947 29.6685 2.50371 29.9127 3.15807C30.157 3.81243 30.2577 4.51164 30.2082 5.20833C30.2082 8.65625 27.8749 11.4583 24.9999 11.4583ZM24.9999 2.08333C24.5782 2.03715 24.1516 2.08622 23.7515 2.22694C23.3513 2.36765 22.9878 2.59642 22.6879 2.89635C22.388 3.19629 22.1592 3.55974 22.0185 3.95989C21.8778 4.36004 21.8287 4.78668 21.8749 5.20833C21.8749 7.51042 23.2811 9.375 24.9999 9.375C26.7186 9.375 28.1249 7.51042 28.1249 5.20833C28.1711 4.78668 28.122 4.36004 27.9813 3.95989C27.8406 3.55974 27.6118 3.19629 27.3119 2.89635C27.0119 2.59642 26.6485 2.36765 26.2483 2.22694C25.8482 2.08622 25.4215 2.03715 24.9999 2.08333Z" fill="white"/>
<path d="M16.6669 22.9167H14.5836V15.1875C14.5758 13.8999 15.0452 12.6551 15.9012 11.6933C16.7573 10.7314 17.9392 10.1208 19.219 9.97917L24.8857 9.375L25.1148 11.4583L19.4482 12.0937C18.6803 12.1787 17.9711 12.5451 17.4575 13.1222C16.9439 13.6993 16.6622 14.4462 16.6669 15.2188V22.9167Z" fill="white"/>
<path d="M20.8333 15.625H18.75V25H20.8333V15.625Z" fill="white"/>
<path d="M35.417 22.9167H33.3337V15.1875C33.3383 14.415 33.0567 13.6681 32.5431 13.091C32.0295 12.5139 31.3203 12.1475 30.5524 12.0625L24.8857 11.4583L25.1149 9.375L30.7816 10C32.0614 10.1416 33.2433 10.7523 34.0994 11.7141C34.9554 12.6759 35.4248 13.9208 35.417 15.2083V22.9167Z" fill="white"/>
<path d="M31.2503 15.625H29.167V25H31.2503V15.625Z" fill="white"/>
<path d="M39.5834 12.5C36.7084 12.5 34.3751 9.69792 34.3751 6.25C34.3255 5.5533 34.4263 4.8541 34.6705 4.19974C34.9148 3.54538 35.2968 2.95114 35.7906 2.45725C36.2845 1.96337 36.8788 1.58138 37.5331 1.33715C38.1875 1.09292 38.8867 0.992151 39.5834 1.04167C40.2801 0.992151 40.9793 1.09292 41.6337 1.33715C42.288 1.58138 42.8823 1.96337 43.3761 2.45725C43.87 2.95114 44.252 3.54538 44.4962 4.19974C44.7405 4.8541 44.8412 5.5533 44.7917 6.25C44.7917 9.69792 42.4584 12.5 39.5834 12.5ZM39.5834 3.125C39.1617 3.07881 38.7351 3.12789 38.3349 3.2686C37.9348 3.40932 37.5713 3.63808 37.2714 3.93802C36.9715 4.23795 36.7427 4.6014 36.602 5.00156C36.4613 5.40171 36.4122 5.82835 36.4584 6.25C36.4584 8.55208 37.8646 10.4167 39.5834 10.4167C41.3021 10.4167 42.7084 8.55208 42.7084 6.25C42.7546 5.82835 42.7055 5.40171 42.5648 5.00156C42.4241 4.6014 42.1953 4.23795 41.8954 3.93802C41.5954 3.63808 41.232 3.40932 40.8318 3.2686C40.4317 3.12789 40.005 3.07881 39.5834 3.125Z" fill="white"/>
<path d="M50 22.9167H47.9167V16.2292C47.9214 15.4566 47.6397 14.7097 47.1261 14.1326C46.6125 13.5555 45.9033 13.1891 45.1354 13.1042L39.4688 12.5L39.6979 10.4167L45.3646 11.0417C46.6444 11.1833 47.8263 11.7939 48.6824 12.7558C49.5384 13.7176 50.0078 14.9624 50 16.25V22.9167Z" fill="white"/>
<path d="M45.8333 16.6667H43.75V25H45.8333V16.6667Z" fill="white"/>
<path d="M28.125 50H21.875C21.6207 50.0022 21.3744 49.9112 21.1825 49.7442C20.9906 49.5773 20.8664 49.3459 20.8334 49.0938L20.0417 43.0729C18.5267 42.6585 17.0705 42.0529 15.7084 41.2708L10.8959 44.9792C10.6946 45.1337 10.4438 45.2095 10.1907 45.1922C9.93748 45.1749 9.69931 45.0658 9.52087 44.8854L5.11462 40.4687C4.93419 40.2903 4.82511 40.0521 4.80785 39.799C4.79058 39.5458 4.86633 39.295 5.02087 39.0937L8.7292 34.2812C7.95145 32.917 7.34612 31.4614 6.92712 29.9479L0.906287 29.1667C0.654104 29.1336 0.422729 29.0094 0.255788 28.8175C0.0888484 28.6257 -0.00211963 28.3793 3.75022e-05 28.125V25H2.08337V27.2083L7.89587 27.9688C8.10791 27.9955 8.3066 28.0868 8.46499 28.2302C8.62339 28.3737 8.73381 28.5625 8.78129 28.7708C9.19412 30.5511 9.89803 32.2511 10.8646 33.8021C10.9856 33.9765 11.0504 34.1836 11.0504 34.3958C11.0504 34.6081 10.9856 34.8152 10.8646 34.9896L7.2292 39.6458L10.3542 42.7708L15.0105 39.1875C15.1848 39.0665 15.392 39.0017 15.6042 39.0017C15.8164 39.0017 16.0236 39.0665 16.198 39.1875C17.749 40.1541 19.4489 40.858 21.2292 41.2708C21.4376 41.3183 21.6263 41.4287 21.7698 41.5871C21.9133 41.7455 22.0046 41.9442 22.0313 42.1563L22.7917 47.9167H27.2084L27.9688 42.1042C27.9955 41.8921 28.0868 41.6934 28.2303 41.535C28.3738 41.3767 28.5625 41.2662 28.7709 41.2187C30.5512 40.8059 32.2511 40.102 33.8021 39.1354C33.9765 39.0144 34.1836 38.9496 34.3959 38.9496C34.6081 38.9496 34.8152 39.0144 34.9896 39.1354L39.6459 42.7187L42.7709 39.5937L39.1875 34.9375C39.0666 34.7631 39.0017 34.556 39.0017 34.3438C39.0017 34.1315 39.0666 33.9244 39.1875 33.75C40.1541 32.199 40.858 30.4991 41.2709 28.7187C41.3183 28.5104 41.4288 28.3216 41.5872 28.1782C41.7456 28.0347 41.9442 27.9434 42.1563 27.9167L47.9167 27.2083V25H50V28.125C50.0022 28.3793 49.9112 28.6257 49.7443 28.8175C49.5773 29.0094 49.346 29.1336 49.0938 29.1667L43.0729 29.9583C42.6585 31.4734 42.053 32.9295 41.2709 34.2917L44.9792 39.1042C45.1337 39.3054 45.2095 39.5562 45.1922 39.8094C45.175 40.0626 45.0659 40.3007 44.8855 40.4792L40.4688 44.8958C40.2903 45.0763 40.0522 45.1853 39.799 45.2026C39.5458 45.2199 39.2951 45.1441 39.0938 44.9896L34.2813 41.2813C32.9191 42.0634 31.463 42.6689 29.948 43.0833L29.1667 49.0938C29.1336 49.3459 29.0095 49.5773 28.8176 49.7442C28.6257 49.9112 28.3794 50.0022 28.125 50Z" fill="white"/>
</g>
</g>
<defs>
<clipPath id="clip0_64_76">
<rect width="50" height="50" fill="white"/>
</clipPath>
<clipPath id="clip1_64_76">
<rect width="50" height="50" fill="white"/>
</clipPath>
</defs>
</svg>
