<svg xmlns="http://www.w3.org/2000/svg" viewBox="0 0 109.65 109.64"><defs><style>.cls-1{fill:#1f5b73;}</style></defs><g id="Capa_2" data-name="Capa 2"><g id="Why_us" data-name="Why us"><path class="cls-1" d="M54.83,109.64a54.82,54.82,0,1,1,54.82-54.82A54.89,54.89,0,0,1,54.83,109.64Zm0-103.5a48.68,48.68,0,1,0,48.69,48.68A48.74,48.74,0,0,0,54.83,6.14Z"/><path class="cls-1" d="M71.62,83.71c-.46-.56-.67-.87-.94-1.14-1.89-1.91-3.82-3.79-5.68-5.74a1.64,1.64,0,0,0-2-.43C52.55,80.33,41.18,75,38.14,64a18.64,18.64,0,1,1,36.19-8.89,19.39,19.39,0,0,1-.91,11A1.51,1.51,0,0,0,73.86,68c2.32,2.27,4.6,4.57,6.87,6.87,2.55,2.59,2.93,4.74,1.47,8a5.52,5.52,0,0,0-.19.77c.83,0,1.57.08,2.31.1a10.51,10.51,0,0,1,2.18.07,1.76,1.76,0,0,1,1.09,1c.07.23-.49.81-.88,1a3.6,3.6,0,0,1-1.48.18H29.88a3.37,3.37,0,0,1-.55,0c-.79-.08-1.69-.16-1.66-1.21s1-1,1.75-1H69.84C70.32,83.79,70.8,83.75,71.62,83.71ZM56.14,75.49a16.42,16.42,0,0,0,0-32.83,16.42,16.42,0,1,0,0,32.83Zm24.59,3.73a6.4,6.4,0,0,0-1-2c-2.33-2.49-4.76-4.89-7.21-7.27a1.24,1.24,0,0,0-1.21,0c-1.48,1.4-2.9,2.86-4.28,4.36A1.25,1.25,0,0,0,67,75.49c2.41,2.47,4.84,5,7.37,7.31a3.57,3.57,0,0,0,4.33.46C80.1,82.51,80.68,81.25,80.73,79.22Z"/><path class="cls-1" d="M43.39,15.15a7.72,7.72,0,1,1-7.91,7.66A7.63,7.63,0,0,1,43.39,15.15Zm5.46,7.7a5.52,5.52,0,0,0-5.51-5.46c-2.93,0-5.79,2.58-5.65,5.39a5.58,5.58,0,0,0,11.16.07Z"/><path class="cls-1" d="M31.33,54.83c-4,0-3.73.48-3.72-3.79V38.58c0-2.48.88-3.81,3.17-4.72,1.69-.68,3.4-1.31,5.11-1.93.78-.29,1.69-.37,1.9.6.09.4-.56,1.21-1,1.44-1.65.77-3.37,1.37-5.07,2a2.63,2.63,0,0,0-1.87,2.7c0,4.15.05,8.31,0,12.46,0,1.19.44,1.53,1.53,1.45a8.72,8.72,0,0,1,2.45,0c.5.11.89.7,1.33,1.07-.44.37-.82,1-1.31,1.06A11.18,11.18,0,0,1,31.33,54.83Z"/><path class="cls-1" d="M59,38.62c-.2.2-.56.83-1.06,1-.91.26-1.09-.46-1.16-1.23A2.55,2.55,0,0,0,55,36c-1.62-.61-3.23-1.23-4.82-1.9-.72-.3-1.76-.56-1.34-1.67s1.31-.73,2.1-.43c1.74.66,3.48,1.32,5.22,2S58.88,36.21,59,38.62Z"/><path class="cls-1" d="M42.48,36.38c-.34,2.92-.57,5.46-1,8-.08.48-.86.83-1.33,1.24-.29-.53-.87-1.08-.83-1.58.22-2.53.56-5,1-7.55a1.62,1.62,0,0,1,1.22-1C41.92,35.43,42.28,36.16,42.48,36.38Z"/><path class="cls-1" d="M47,41c-.21.19-.62.85-1.09.91s-1-.67-1.15-1.14a22.55,22.55,0,0,1-.44-4.18c0-.42.56-.85.87-1.27.41.34,1.1.62,1.19,1C46.63,37.73,46.72,39.14,47,41Z"/><path class="cls-1" d="M56.21,45.93a13.16,13.16,0,0,1,.17,26.31C48.67,72.2,43,66.69,42.93,59.1A13,13,0,0,1,56.21,45.93Zm-.06,2.18a11,11,0,1,0,10.94,11A11.13,11.13,0,0,0,56.15,48.11Z"/><path class="cls-1" d="M50.17,62.37c-.36-.25-.88-.44-.89-.64a2.4,2.4,0,0,1,.33-1.6c1.47-1.62,3.06-3.13,4.6-4.68.78-.77,1.52-1.57,2.34-2.3.58-.52,1.27-.8,1.92-.06s.14,1.25-.36,1.75c-2.21,2.24-4.43,4.48-6.67,6.69A8.22,8.22,0,0,1,50.17,62.37Z"/><path class="cls-1" d="M55.46,66.16c-.32-.28-.78-.5-.8-.75A2.18,2.18,0,0,1,55,63.94c1.29-1.42,2.67-2.74,4-4.09,1-1,1.92-2,2.9-2.9.58-.56,1.37-.88,1.89-.17a1.85,1.85,0,0,1-.33,1.73c-2.21,2.35-4.52,4.61-6.82,6.88A6.61,6.61,0,0,1,55.46,66.16Z"/></g></g></svg>