<svg xmlns="http://www.w3.org/2000/svg" xmlns:xlink="http://www.w3.org/1999/xlink" viewBox="0 0 163.82 100.1"><defs><style>.cls-1,.cls-10,.cls-11,.cls-2,.cls-3,.cls-4,.cls-5,.cls-6,.cls-7,.cls-8,.cls-9{fill:none;stroke-miterlimit:10;stroke-width:2.95px;}.cls-1{stroke:url(#linear-gradient);}.cls-2{stroke:url(#linear-gradient-2);}.cls-3{stroke:url(#linear-gradient-3);}.cls-4{stroke:url(#linear-gradient-4);}.cls-5{stroke:url(#linear-gradient-5);}.cls-6{stroke:url(#linear-gradient-6);}.cls-7{stroke:url(#linear-gradient-7);}.cls-8{stroke:url(#linear-gradient-8);}.cls-9{stroke:url(#linear-gradient-9);}.cls-10{stroke:url(#linear-gradient-10);}.cls-11{stroke:url(#linear-gradient-11);}</style><linearGradient id="linear-gradient" x1="57.89" y1="88.71" x2="112.46" y2="88.71" gradientUnits="userSpaceOnUse"><stop offset="0" stop-color="#e4e3e4"/><stop offset="0.06" stop-color="#eae9ea"/><stop offset="0.23" stop-color="#f6f6f6"/><stop offset="0.46" stop-color="#fdfdfd"/><stop offset="1" stop-color="#fff"/></linearGradient><linearGradient id="linear-gradient-2" x1="44.71" y1="50.23" x2="119.12" y2="50.23" xlink:href="#linear-gradient"/><linearGradient id="linear-gradient-3" x1="163.82" y1="23.71" x2="0" y2="23.71" xlink:href="#linear-gradient"/><linearGradient id="linear-gradient-4" x1="23.64" y1="14.89" x2="40.98" y2="14.89" xlink:href="#linear-gradient"/><linearGradient id="linear-gradient-5" x1="127.11" y1="32.54" x2="144.45" y2="32.54" xlink:href="#linear-gradient"/><linearGradient id="linear-gradient-6" x1="62.01" y1="17.27" x2="78.28" y2="17.27" xlink:href="#linear-gradient"/><linearGradient id="linear-gradient-7" x1="76.21" y1="15.35" x2="92.48" y2="15.35" xlink:href="#linear-gradient"/><linearGradient id="linear-gradient-8" x1="89.53" y1="15.61" x2="105.8" y2="15.61" xlink:href="#linear-gradient"/><linearGradient id="linear-gradient-9" x1="102.85" y1="17.08" x2="119.12" y2="17.08" xlink:href="#linear-gradient"/><linearGradient id="linear-gradient-10" x1="44.83" y1="41.52" x2="92.61" y2="41.52" xlink:href="#linear-gradient"/><linearGradient id="linear-gradient-11" x1="97.98" y1="88.71" x2="108.01" y2="88.71" xlink:href="#linear-gradient"/></defs><g id="Capa_2" data-name="Capa 2"><g id="services"><rect class="cls-1" x="59.36" y="78.79" width="51.62" height="19.84"/><path class="cls-2" d="M50.4,25.89a15,15,0,0,0-3.74,14.23A69.68,69.68,0,0,0,63.48,66.21V78.79H107.4V67l6-5.18a12.06,12.06,0,0,0,4.27-9V20.19"/><path class="cls-3" d="M120.81,15.29l-.33,0h-76a6.9,6.9,0,0,0-1.33.13,22.14,22.14,0,0,0-40.87-.6H22.56V32.44H2.25a22.14,22.14,0,0,0,40.87-.6,6.9,6.9,0,0,0,1.33.13h76.22a22.15,22.15,0,0,0,40.9.67H141.26V15h20.31a22.15,22.15,0,0,0-40.76.31Z"/><path class="cls-4" d="M23.67,7.31A16.21,16.21,0,0,1,39.5,23.9"/><path class="cls-5" d="M144.42,40.12a16.23,16.23,0,0,1-15.83-16.6"/><path class="cls-6" d="M76.8,23.5a6.65,6.65,0,0,1-6.66,6.66h0a6.66,6.66,0,0,1-6.66-6.66V11a6.66,6.66,0,0,1,6.66-6.66h0A6.66,6.66,0,0,1,76.8,11Z"/><path class="cls-7" d="M91,22.56a6.66,6.66,0,0,1-6.66,6.66h0a6.66,6.66,0,0,1-6.66-6.66V8.13a6.66,6.66,0,0,1,6.66-6.66h0A6.66,6.66,0,0,1,91,8.13Z"/><path class="cls-8" d="M104.32,20.18a6.66,6.66,0,0,1-6.66,6.65h0A6.65,6.65,0,0,1,91,20.18V11a6.66,6.66,0,0,1,6.65-6.66h0A6.66,6.66,0,0,1,104.32,11Z"/><path class="cls-9" d="M117.64,20.19A6.66,6.66,0,0,1,111,26.85h0a6.67,6.67,0,0,1-6.67-6.66V14A6.67,6.67,0,0,1,111,7.31h0A6.66,6.66,0,0,1,117.64,14Z"/><path class="cls-10" d="M77.1,54.81C79.62,34.76,62.86,32,62.86,32H82.61c9.19-2,8.72-14.76,8.4-14.7H60.62L50.4,25.89s-5.52,6-3.74,14.23A70.12,70.12,0,0,0,63.48,66.21"/><path class="cls-11" d="M106.54,88.71A3.54,3.54,0,1,1,103,85.17,3.54,3.54,0,0,1,106.54,88.71Z"/></g></g></svg>